<?xml version="1.0" encoding="UTF-8" standalone="no"?>
<!-- Created with Inkscape (http://www.inkscape.org/) -->

<svg
   xmlns:dc="http://purl.org/dc/elements/1.1/"
   xmlns:cc="http://creativecommons.org/ns#"
   xmlns:rdf="http://www.w3.org/1999/02/22-rdf-syntax-ns#"
   xmlns:svg="http://www.w3.org/2000/svg"
   xmlns="http://www.w3.org/2000/svg"
   xmlns:sodipodi="http://sodipodi.sourceforge.net/DTD/sodipodi-0.dtd"
   xmlns:inkscape="http://www.inkscape.org/namespaces/inkscape"
   width="500mm"
   height="500mm"
   viewBox="0 0 500 500"
   version="1.1"
   id="svg8"
   inkscape:version="0.92.3 (2405546, 2018-03-11)"
   sodipodi:docname="f_circle.svg">
  <defs
     id="defs2" />
  <sodipodi:namedview
     id="base"
     pagecolor="#ffffff"
     bordercolor="#666666"
     borderopacity="1.0"
     inkscape:pageopacity="0.0"
     inkscape:pageshadow="2"
     inkscape:zoom="0.35"
     inkscape:cx="1222.3847"
     inkscape:cy="1220.0787"
     inkscape:document-units="mm"
     inkscape:current-layer="layer1"
     showgrid="false"
     inkscape:window-width="1920"
     inkscape:window-height="1001"
     inkscape:window-x="-9"
     inkscape:window-y="-9"
     inkscape:window-maximized="1" />
  <metadata
     id="metadata5">
    <rdf:RDF>
      <cc:Work
         rdf:about="">
        <dc:format>image/svg+xml</dc:format>
        <dc:type
           rdf:resource="http://purl.org/dc/dcmitype/StillImage" />
        <dc:title />
      </cc:Work>
    </rdf:RDF>
  </metadata>
  <g
     inkscape:label="Camada 1"
     inkscape:groupmode="layer"
     id="layer1"
     transform="translate(0,203)">
    <g
       aria-label="m"
       transform="scale(0.97334599,1.0273839)"
       style="font-style:normal;font-variant:normal;font-weight:normal;font-stretch:normal;font-size:655.57281494px;line-height:1.25;font-family:Wingdings;-inkscape-font-specification:Wingdings;letter-spacing:0px;word-spacing:0px;fill:#000000;fill-opacity:1;stroke:none;stroke-width:0.32778639"
       id="text12">
      <path
         d="m 307.17211,-178.54482 68.50224,28.16915 q 62.42026,25.92842 99.87242,82.266705 37.77226,56.018185 37.77226,123.56011 0,92.510035 -65.3012,157.811225 -65.3012,64.9811 -157.81123,64.9811 -43.53413,0 -84.82753,-16.96551 L 136.87683,232.78871 Q 74.456565,207.1804 36.684303,151.16222 -0.76785502,94.823927 -0.76785502,27.282001 q 0,-92.189927 64.98109402,-157.491121 65.301201,-65.3012 157.491121,-65.3012 40.97331,0 85.46775,16.9655 z M 29.001809,29.842832 q 0,78.105358 56.978497,134.443648 56.978494,56.01818 136.044164,56.01818 79.70587,0 136.36427,-56.65839 56.65839,-56.65839 56.65839,-136.684373 0,-79.705874 -56.65839,-136.364267 -56.6584,-56.65839 -136.36427,-56.65839 -80.98629,0 -137.004476,56.97849 -56.018185,56.9785 -56.018185,138.925102 z"
         style="font-style:normal;font-variant:normal;font-weight:normal;font-stretch:normal;font-size:655.57281494px;font-family:Wingdings;-inkscape-font-specification:Wingdings;stroke-width:0.32778639"
         id="path32" />
    </g>
    <path
       style="fill:#000000;fill-opacity:1;stroke:#020000;stroke-width:0.70191228;stroke-miterlimit:4;stroke-dasharray:none;stroke-opacity:1"
       d="M 724.95617,1615.6649 C 594.15394,1597.1523 478.99657,1545.7787 379.35407,1461.4862 261.57189,1361.8484 177.02774,1234.8589 138.12596,1099.1496 117.87211,1028.4938 112.05257,988.22178 110.08858,905.12727 106.5594,755.81073 129.13342,646.1927 188.05359,526.53407 224.34975,452.82167 265.48027,395.64765 329.14116,330.41349 439.87051,216.94765 560.94686,154.03164 712.67943,131.11198 c 53.357,-8.05973 146.65671,-8.75277 197.99103,-1.47069 155.14614,22.00842 285.45454,89.48038 398.57144,206.375 61.9476,64.01645 103.9466,122.98466 140.1753,196.81161 57.717,117.61568 83.3656,253.00434 74.1539,391.42857 -11.7208,176.12793 -69.5175,319.55483 -180.7607,448.57143 -114.8934,133.25 -250.4415,211.9838 -413.56851,240.2233 -37.96955,6.573 -164.84149,8.1963 -204.28572,2.6137 z"
       id="path817"
       inkscape:connector-curvature="0"
       transform="matrix(0.26458333,0,0,0.26458333,0,-203)" />
  </g>
</svg>
