<?xml version="1.0" encoding="UTF-8" standalone="no"?>
<!-- Created with Inkscape (http://www.inkscape.org/) -->

<svg
   xmlns:dc="http://purl.org/dc/elements/1.1/"
   xmlns:cc="http://creativecommons.org/ns#"
   xmlns:rdf="http://www.w3.org/1999/02/22-rdf-syntax-ns#"
   xmlns:svg="http://www.w3.org/2000/svg"
   xmlns="http://www.w3.org/2000/svg"
   xmlns:sodipodi="http://sodipodi.sourceforge.net/DTD/sodipodi-0.dtd"
   xmlns:inkscape="http://www.inkscape.org/namespaces/inkscape"
   width="210mm"
   height="297mm"
   viewBox="0 0 210 297"
   version="1.1"
   id="svg827"
   inkscape:version="0.92.3 (2405546, 2018-03-11)"
   sodipodi:docname="seta completa.svg">
  <defs
     id="defs821">
    <pattern
       y="0"
       x="0"
       height="6"
       width="6"
       patternUnits="userSpaceOnUse"
       id="EMFhbasepattern" />
  </defs>
  <sodipodi:namedview
     id="base"
     pagecolor="#ffffff"
     bordercolor="#666666"
     borderopacity="1.0"
     inkscape:pageopacity="0.0"
     inkscape:pageshadow="2"
     inkscape:zoom="1.4"
     inkscape:cx="204.97849"
     inkscape:cy="722.85766"
     inkscape:document-units="mm"
     inkscape:current-layer="layer1"
     showgrid="false"
     inkscape:window-width="1440"
     inkscape:window-height="837"
     inkscape:window-x="1592"
     inkscape:window-y="-8"
     inkscape:window-maximized="1" />
  <metadata
     id="metadata824">
    <rdf:RDF>
      <cc:Work
         rdf:about="">
        <dc:format>image/svg+xml</dc:format>
        <dc:type
           rdf:resource="http://purl.org/dc/dcmitype/StillImage" />
        <dc:title></dc:title>
      </cc:Work>
    </rdf:RDF>
  </metadata>
  <g
     inkscape:label="Camada 1"
     inkscape:groupmode="layer"
     id="layer1">
    <path
       id="path1375"
       d="m 7.2081829,96.911759 c -0.656161,-0.55033 -1.248824,-0.78316 -2.73048,-1.0795 -0.592662,-0.10583 -0.571495,-0.127 0.613829,-0.42333 1.164158,-0.29633 2.73048,-1.12182 2.73048,-1.43932 0,-0.0847 0.232832,0.127 0.550329,0.46566 l 0.55033,0.635 90.2328291,-0.0212 h 90.25399 l 0.4445,-0.59266 c 0.23283,-0.3175 0.48683,-0.55033 0.52916,-0.48683 0.381,0.508 1.60866,1.16416 2.68815,1.43932 l 1.26999,0.3175 -0.69849,0.127 c -1.26999,0.21167 -1.92616,0.48683 -2.66698,1.05833 l -0.6985,0.59266 -0.48683,-0.61383 -0.48683,-0.59266 H 99.11317 8.9015039 l -0.48683,0.59266 -0.507996,0.61383 z"
       style="fill:#000000;fill-opacity:1;fill-rule:nonzero;stroke:none;stroke-width:0.26458332"
       inkscape:connector-curvature="0" />
  </g>
</svg>
